<svg width="42" height="42" viewBox="0 0 42 42" fill="none" xmlns="http://www.w3.org/2000/svg">
<g opacity="0.5">
<path fill-rule="evenodd" clip-rule="evenodd" d="M21 41C32.0457 41 41 32.0457 41 21C41 9.95431 32.0457 1 21 1C9.95431 1 1 9.95431 1 21C1 32.0457 9.95431 41 21 41Z" stroke="#BDBDBD"/>
<path d="M27.3427 15.0907C25.646 13.7425 23.3935 13 21 13C18.6065 13 16.3539 13.7425 14.6573 15.0907C12.9437 16.4524 12 18.2679 12 20.203C12 21.367 12.3545 22.5231 13.025 23.5463C13.6438 24.4905 14.532 25.3249 15.5999 25.9668C15.5506 26.3143 15.2852 27.3313 13.8592 28.5433C13.7859 28.6057 13.7559 28.7059 13.783 28.7987C13.8101 28.8915 13.889 28.9595 13.9842 28.9721C13.9928 28.9732 14.2002 29 14.5687 29C15.6195 29 17.7669 28.7899 20.392 27.3897C20.5946 27.4005 20.7988 27.406 21 27.406C23.3935 27.406 25.646 26.6635 27.3427 25.3153C29.0563 23.9536 30 22.1381 30 20.203C30 18.2679 29.0563 16.4524 27.3427 15.0907Z" fill="#BDBDBD"/>
</g>
</svg>
