<svg width="40" height="40" fill="none" xmlns="http://www.w3.org/2000/svg">
  <path fill-rule="evenodd" clip-rule="evenodd" d="M20 40c11.046 0 20-8.954 20-20S31.046 0 20 0 0 8.954 0 20s8.954 20 20 20z" fill="#1F8AFF"/>
  <path fill-rule="evenodd" clip-rule="evenodd" d="M16.921 23.836s7.067 6.45 11.05 4.417c0 0 1.1-.902 1.207-1.788.106-.886-.808-1.48-1.162-1.682-.846-.485-1.716-.938-2.58-1.398-.272-.146-.568-.311-.89-.23-.186.047-.379.1-.55.18-.607.286-1.105.555-1.764.823 0 0-.672-.197-3.179-2.48-2.663-2.425-2.303-3.327-2.303-3.327a9.79 9.79 0 0 0 .924-1.393c.113-.21.268-.413.334-.641.067-.23-.07-.395-.185-.597a26.497 26.497 0 0 0-.812-1.332c-.488-.757-.986-1.546-1.61-2.222-.065-.07-.218-.282-.343-.273-1.385.083-2.749 1.329-2.749 1.329-2.143 3.524 4.612 10.614 4.612 10.614z" fill="#fff"/>
</svg>