<svg width="16" height="16" viewBox="0 0 16 16" fill="none" xmlns="http://www.w3.org/2000/svg">
<path d="M15.108 14.0735L11.6805 10.6129C12.6596 9.44901 13.1961 7.98455 13.1961 6.45999C13.1961 2.89801 10.2981 0 6.7361 0C3.17412 0 0.276108 2.89801 0.276108 6.45999C0.276108 10.022 3.17412 12.92 6.7361 12.92C8.07332 12.92 9.34762 12.5167 10.4371 11.751L13.8935 15.2416C14.0539 15.4082 14.2696 15.5 14.5007 15.5C14.7195 15.5 14.9271 15.4166 15.0846 15.2649C15.4194 14.9428 15.4301 14.4085 15.108 14.0735ZM6.7361 1.68522C9.36897 1.68522 11.5109 3.82713 11.5109 6.45999C11.5109 9.09286 9.36897 11.2348 6.7361 11.2348C4.10323 11.2348 1.96132 9.09286 1.96132 6.45999C1.96132 3.82713 4.10323 1.68522 6.7361 1.68522Z" fill="#828282"/>
</svg>
