<svg width="42" height="42" viewBox="0 0 42 42" fill="none" xmlns="http://www.w3.org/2000/svg">
<g opacity="0.5">
<path fill-rule="evenodd" clip-rule="evenodd" d="M20.7773 41C31.823 41 40.7773 32.0457 40.7773 21C40.7773 9.9543 31.823 1 20.7773 1C9.73165 1 0.777344 9.9543 0.777344 21C0.777344 32.0457 9.73165 41 20.7773 41Z" stroke="#BDBDBD"/>
<path fill-rule="evenodd" clip-rule="evenodd" d="M14.1195 15.1719H23.5792C24.9785 15.1719 26.1119 16.3209 26.1119 17.7394V24.8003C26.1119 26.2188 24.9785 27.3678 23.5792 27.3678H14.1195C12.7202 27.3678 11.5868 26.2188 11.5868 24.8003V17.7394C11.5868 16.3209 12.7202 15.1719 14.1195 15.1719ZM27.0634 19.3242L31.9452 16.7951H32.1288V25.7816H31.9376L27.0634 23.2141V19.3242Z" fill="#BDBDBD"/>
</g>
</svg>
